# File created by Blade
# Date/Time:  Tue Apr 07 21:12:38 2015
# Frame Rate: 120.000 fps
#------------------------------------------------------
:FULLY-SPECIFIED
:DEGREES
914
root 6.525657 27.904394 9.924725 736.206560 -69.817033 -509.832809
Spine -55.804547 -19.383858 3.684694
Head -77.170597 -1.273710 8.450336
LeftShoulder -10.338791 -2.306947 37.589979
LeftArm 155.518919 -33.174198 -129.795079
LeftForeArm 33.496675 -0.000000 116.087110
LeftHand -14.422804 -0.000000 -7.323161
LeftHandThumb1 -26.253704 0.000000 33.147579
RightShoulder -21.170756 54.705718 -55.693052
RightArm 81.087202 50.369493 91.130802
RightForeArm -31.592780 0.000000 123.810771
RightHand -8.606304 -0.000000 13.476583
RightHandThumb1 -24.326973 -0.000000 -32.862282
LeftUpLeg 13.463821 -6.451921 17.543283
LeftLeg 20.605021 -0.000000 -0.000000
LeftFoot 40.982608 9.077521 0.746659
LeftToeBase 105.781245 -0.000000 -0.000000
RightUpLeg -123.521471 -23.460488 6.052624
RightLeg 79.678736 -0.000000 -0.000000
RightFoot 45.293779 -2.789353 -3.211061
RightToeBase 35.262050 -0.000000 -0.000000
915
root 6.525033 27.898642 9.921549 736.423041 -69.797327 -509.964652
Spine -55.940816 -19.396845 3.768109
Head -77.143047 -1.352660 8.408806
LeftShoulder -10.405788 -2.699361 37.676361
LeftArm 154.944974 -33.384637 -129.449290
LeftForeArm 33.490825 -0.000000 116.134792
LeftHand -14.370495 -0.000000 -7.370496
LeftHandThumb1 -26.253704 0.000000 33.147579
RightShoulder -21.053447 54.602678 -55.570248
RightArm 81.180772 50.385041 91.188263
RightForeArm -31.596274 -0.000000 123.810578
RightHand -8.621244 -0.000000 13.416354
RightHandThumb1 -24.326973 -0.000000 -32.862282
LeftUpLeg 13.520563 -6.463227 17.618504
LeftLeg 20.476285 -0.000000 -0.000000
LeftFoot 40.915865 9.314526 0.697605
LeftToeBase 105.671095 -0.000000 -0.000000
RightUpLeg -123.486144 -23.383458 6.111083
RightLeg 80.726367 -0.000000 -0.000000
RightFoot 45.352670 -2.792870 -3.213850
RightToeBase 35.239760 -0.000000 -0.000000
916
root 6.521890 27.893948 9.919522 736.502599 -69.767372 -509.968290
Spine -56.056716 -19.453341 3.810984
Head -77.107873 -1.393929 8.386894
LeftShoulder -10.459902 -2.945244 37.763703
LeftArm 154.537412 -33.530399 -129.216008
LeftForeArm 33.376074 0.000000 116.204087
LeftHand -14.372461 -0.000000 -7.518573
LeftHandThumb1 -26.253704 0.000000 33.147579
RightShoulder -20.991109 54.593833 -55.503179
RightArm 81.117073 50.402668 91.164067
RightForeArm -31.581203 -0.000000 123.838908
RightHand -8.647062 0.000000 13.366360
RightHandThumb1 -24.326973 -0.000000 -32.862282
LeftUpLeg 13.588894 -6.545064 17.631184
LeftLeg 20.343702 -0.000000 -0.000000
LeftFoot 40.853456 9.516860 0.714811
LeftToeBase 105.659307 -0.000000 -0.000000
RightUpLeg -123.465233 -23.331566 6.150219
RightLeg 81.786378 -0.000000 -0.000000
RightFoot 45.419745 -2.713471 -3.299221
RightToeBase 35.241323 -0.000000 -0.000000
917
root 6.516280 27.891603 9.917437 736.510419 -69.723189 -509.918834
Spine -56.111961 -19.499788 3.789691
Head -77.105476 -1.488238 8.359746
LeftShoulder -10.455679 -3.009690 37.794940
LeftArm 154.414343 -33.551216 -129.125352
LeftForeArm 33.357868 -0.000000 116.232997
LeftHand -14.343433 -0.000000 -7.653384
LeftHandThumb1 -26.253704 0.000000 33.147579
RightShoulder -20.953153 54.520752 -55.453769
RightArm 81.184576 50.443108 91.224046
RightForeArm -31.650996 -0.000000 123.862079
RightHand -8.674377 0.000000 13.431165
RightHandThumb1 -24.326973 -0.000000 -32.862282
LeftUpLeg 13.652013 -6.639296 17.634368
LeftLeg 20.249714 -0.000000 -0.000000
LeftFoot 40.784031 9.646008 0.782846
LeftToeBase 105.673053 -0.000000 -0.000000
RightUpLeg -123.440466 -23.306691 6.159663
RightLeg 82.852802 -0.000000 -0.000000
RightFoot 45.496492 -2.634019 -3.284080
RightToeBase 35.227328 -0.000000 -0.000000
918
root 6.509074 27.891476 9.915965 736.454127 -69.651166 -509.838842
Spine -56.135037 -19.577769 3.770426
Head -77.120893 -1.586865 8.496327
LeftShoulder -10.403146 -2.973293 37.793738
LeftArm 154.448175 -33.583824 -129.119671
LeftForeArm 33.394403 -0.000000 116.229279
LeftHand -14.311774 -0.000000 -7.650488
LeftHandThumb1 -26.253704 0.000000 33.147579
RightShoulder -20.837628 54.449109 -55.347653
RightArm 81.277372 50.488247 91.262793
RightForeArm -31.627351 -0.000000 123.885977
RightHand -8.704523 -0.000000 13.419062
RightHandThumb1 -24.326973 -0.000000 -32.862282
LeftUpLeg 13.740018 -6.784000 17.632920
LeftLeg 20.156183 -0.000000 -0.000000
LeftFoot 40.660010 9.832748 0.604809
LeftToeBase 105.642315 -0.000000 -0.000000
RightUpLeg -123.401003 -23.319253 6.160621
RightLeg 83.948608 -0.000000 -0.000000
RightFoot 45.535733 -2.497449 -3.311659
RightToeBase 35.286008 -0.000000 -0.000000
